<?xml version="1.0" encoding="iso-8859-1"?>
<!-- Uploaded to: SVG Repo, www.svgrepo.com, Generator: SVG Repo Mixer Tools -->
<!DOCTYPE svg PUBLIC "-//W3C//DTD SVG 1.1//EN" "http://www.w3.org/Graphics/SVG/1.1/DTD/svg11.dtd">
<svg fill="#000000" height="800px" width="800px" version="1.1" id="Capa_1" xmlns="http://www.w3.org/2000/svg" xmlns:xlink="http://www.w3.org/1999/xlink" 
	 viewBox="0 0 465 465" xml:space="preserve">
<g>
	<path d="M437.5,137.888H86.591v-2.727c0-7.012-2.601-13.424-6.881-18.336l336.504-90.166c4.001-1.072,6.375-5.185,5.304-9.186
		c-1.072-4.001-5.183-6.374-9.186-5.304L57.545,107.234c-14.91,0.576-26.863,12.879-26.863,27.927v2.727H27.5
		c-15.164,0-27.5,12.336-27.5,27.5v260.2c0,15.164,12.336,27.5,27.5,27.5h410c15.164,0,27.5-12.336,27.5-27.5v-260.2
		C465,150.224,452.664,137.888,437.5,137.888z M45.682,135.161c0-7.137,5.802-12.944,12.937-12.954c0.004,0,0.008,0.001,0.013,0.001
		c0.006,0,0.013-0.001,0.019-0.001c7.136,0.008,12.94,5.816,12.94,12.954v2.727H45.682V135.161z M450,425.588
		c0,6.893-5.607,12.5-12.5,12.5h-410c-6.893,0-12.5-5.607-12.5-12.5v-260.2c0-6.893,5.607-12.5,12.5-12.5h410
		c6.893,0,12.5,5.607,12.5,12.5V425.588z"/>
	<path d="M140.455,195.943c-54.89,0-99.545,44.656-99.545,99.545s44.656,99.545,99.545,99.545S240,350.378,240,295.488
		S195.344,195.943,140.455,195.943z M140.455,380.033c-46.619,0-84.545-37.927-84.545-84.545s37.927-84.545,84.545-84.545
		S225,248.869,225,295.488S187.073,380.033,140.455,380.033z"/>
	<path d="M140.455,226.624c-37.972,0-68.864,30.892-68.864,68.863c0,37.972,30.892,68.864,68.864,68.864
		s68.864-30.892,68.864-68.864C209.318,257.516,178.426,226.624,140.455,226.624z M140.455,349.351
		c-29.701,0-53.864-24.163-53.864-53.864c0-29.7,24.163-53.863,53.864-53.863s53.864,24.163,53.864,53.863
		C194.318,325.188,170.155,349.351,140.455,349.351z"/>
	<path d="M296.42,340.297c16.824,0,30.511-13.688,30.511-30.511c0-16.824-13.688-30.512-30.511-30.512s-30.511,13.688-30.511,30.512
		C265.909,326.609,279.597,340.297,296.42,340.297z M296.42,294.274c8.553,0,15.511,6.958,15.511,15.512
		c0,8.553-6.958,15.511-15.511,15.511s-15.511-6.958-15.511-15.511C280.909,301.233,287.868,294.274,296.42,294.274z"/>
	<path d="M393.58,279.274c-16.824,0-30.511,13.688-30.511,30.512c0,16.824,13.688,30.511,30.511,30.511s30.511-13.688,30.511-30.511
		C424.091,292.962,410.403,279.274,393.58,279.274z M393.58,325.297c-8.553,0-15.511-6.958-15.511-15.511
		c0-8.553,6.958-15.512,15.511-15.512s15.511,6.958,15.511,15.512C409.091,318.339,402.132,325.297,393.58,325.297z"/>
	<path d="M416.591,177.002H273.409c-4.142,0-7.5,3.358-7.5,7.5v71.591c0,4.142,3.358,7.5,7.5,7.5h143.182c4.142,0,7.5-3.358,7.5-7.5
		v-71.591C424.091,180.36,420.733,177.002,416.591,177.002z M409.091,248.592h-87.272v-31.613c0-4.142-3.358-7.5-7.5-7.5
		s-7.5,3.358-7.5,7.5v31.613h-25.909v-56.591h128.182V248.592z"/>
	<path d="M416.591,355.979H273.409c-4.142,0-7.5,3.358-7.5,7.5v41.2c0,4.142,3.358,7.5,7.5,7.5h143.182c4.142,0,7.5-3.358,7.5-7.5
		v-41.2C424.091,359.337,420.733,355.979,416.591,355.979z M361.364,370.979v26.2h-32.728v-26.2H361.364z M280.909,370.979h32.727
		v26.2h-32.727V370.979z M409.091,397.178h-32.727v-26.2h32.727V397.178z"/>
	<path d="M140.455,257.306c-4.142,0-7.5,3.358-7.5,7.5v61.364c0,4.142,3.358,7.5,7.5,7.5c4.142,0,7.5-3.358,7.5-7.5v-61.364
		C147.955,260.664,144.597,257.306,140.455,257.306z"/>
	<path d="M109.773,265.543c-4.142,0-7.5,3.358-7.5,7.5v44.89c0,4.142,3.358,7.5,7.5,7.5s7.5-3.358,7.5-7.5v-44.89
		C117.273,268.901,113.915,265.543,109.773,265.543z"/>
	<path d="M171.136,265.543c-4.142,0-7.5,3.358-7.5,7.5v44.89c0,4.142,3.358,7.5,7.5,7.5s7.5-3.358,7.5-7.5v-44.89
		C178.636,268.901,175.278,265.543,171.136,265.543z"/>
</g>
</svg>